<svg width="17" height="17" viewBox="0 0 54 54" fill="none" xmlns="http://www.w3.org/2000/svg">
<path d="M0 42.1877C0 48.7116 5.28863 54.0002 11.8125 54.0002H42.1875C48.7114 54.0002 54 48.7116 54 42.1877V36.0002H0V42.1877Z" fill="#73AF00"/>
<path d="M42.1875 0H11.8125C5.28863 0 0 5.28863 0 11.8125V18H54V11.8125C54 5.28863 48.7114 0 42.1875 0Z" fill="#82AFFF"/>
<path d="M54 17.9998H0V36.0002H54V17.9998Z" fill="#FF4B55"/>
<path d="M28.9438 32.8931C25.7548 32.8931 23.1678 30.3061 23.1678 27.1141C23.1678 23.928 25.7548 21.3353 28.9438 21.3353C30.1303 21.3353 31.2246 21.7002 32.1364 22.3178C32.276 22.4124 32.4354 22.2289 32.3185 22.1073C30.9557 20.6904 29.0269 19.826 26.8883 19.899C23.2142 20.0244 20.1726 22.9701 19.9378 26.6389C19.6689 30.8412 22.9963 34.3335 27.1391 34.3335C29.1799 34.3335 31.0139 33.4803 32.3236 32.1162C32.4393 31.9956 32.2796 31.815 32.1412 31.9087C31.2285 32.5277 30.1325 32.8931 28.9438 32.8931Z" fill="#F5F5F5"/>
<path d="M34.0005 23.5573L34.5997 25.2424L36.215 24.4746C36.3367 24.4168 36.4636 24.5436 36.4058 24.6654L35.638 26.2806L37.323 26.8799C37.4499 26.925 37.4499 27.1045 37.323 27.1497L35.638 27.7489L36.4058 29.3642C36.4636 29.4859 36.3367 29.6128 36.215 29.555L34.5997 28.7872L34.0005 30.4723C33.9553 30.5991 33.7758 30.5991 33.7307 30.4723L33.1314 28.7872L31.5161 29.555C31.3944 29.6128 31.2676 29.4859 31.3253 29.3642L32.0932 27.7489L30.4081 27.1497C30.2812 27.1045 30.2812 26.925 30.4081 26.8799L32.0932 26.2806L31.3253 24.6654C31.2676 24.5436 31.3944 24.4168 31.5161 24.4746L33.1314 25.2424L33.7307 23.5573C33.7758 23.4303 33.9553 23.4303 34.0005 23.5573Z" fill="#F5F5F5"/>
</svg>
