<svg width="15" height="12" viewBox="0 0 15 12" fill="none" xmlns="http://www.w3.org/2000/svg">
<path d="M7.36789 2.19202C9.82385 2.21612 11.3624 2.06332 11.5702 4.78549H14.5651C14.5651 0.568418 10.8873 0 7.28992 0C3.69231 0 0.01474 0.568418 0.01474 4.78549H2.98639C3.21631 2.01143 4.93234 2.16821 7.36789 2.19202Z" fill="#B90D5D"/>
<path d="M1.5 6.14118C2.22945 6.14118 2.83642 6.18483 2.97137 5.4673C2.98951 5.36977 3 5.25921 3 5.13135H2.96541H0C0 6.19873 0.671612 6.14118 1.5 6.14118Z" fill="#B90D5D"/>
<path d="M11.5895 5.13135H11.5614C11.5614 5.26006 11.5725 5.37091 11.5932 5.4673C11.7355 6.12899 12.3416 6.08788 13.0685 6.08788C13.9009 6.08788 14.5756 6.14259 14.5756 5.13135H11.5895Z" fill="#B90D5D"/>
<path d="M10.1263 4.40443V3.98032C10.1263 3.79065 9.90776 3.77875 9.63787 3.77875H9.19703C8.92742 3.77875 8.70884 3.79065 8.70884 3.98032V4.34575V4.62925H5.59034V4.34575V3.98032C5.59034 3.79065 5.37176 3.77875 5.10215 3.77875H4.66102C4.39142 3.77875 4.17284 3.79065 4.17284 3.98032V4.40443V4.77468C3.46239 5.51292 1.13768 8.65552 1.0532 9.03598L1.05433 11.5747C1.05433 11.8092 1.24513 12 1.47958 12H12.8196C13.0541 12 13.2448 11.8092 13.2448 11.5747V9.02322C13.1612 8.65382 10.8371 5.51264 10.1263 4.7744V4.40443ZM5.43668 9.37759C5.20846 9.37759 5.02334 9.19275 5.02334 8.96425C5.02334 8.73575 5.20846 8.55091 5.43668 8.55091C5.6649 8.55091 5.85002 8.73575 5.85002 8.96425C5.85002 9.19275 5.6649 9.37759 5.43668 9.37759ZM5.43668 7.96009C5.20846 7.96009 5.02334 7.77525 5.02334 7.54675C5.02334 7.31825 5.20846 7.13341 5.43668 7.13341C5.6649 7.13341 5.85002 7.31825 5.85002 7.54675C5.85002 7.77525 5.6649 7.96009 5.43668 7.96009ZM5.43668 6.54288C5.20846 6.54288 5.02334 6.35803 5.02334 6.12953C5.02334 5.90131 5.20846 5.71619 5.43668 5.71619C5.6649 5.71619 5.85002 5.90131 5.85002 6.12953C5.85002 6.35803 5.6649 6.54288 5.43668 6.54288ZM7.13768 9.37759C6.90947 9.37759 6.72434 9.19275 6.72434 8.96425C6.72434 8.73575 6.90947 8.55091 7.13768 8.55091C7.36618 8.55091 7.55103 8.73575 7.55103 8.96425C7.55103 9.19275 7.36618 9.37759 7.13768 9.37759ZM7.13768 7.96009C6.90947 7.96009 6.72434 7.77525 6.72434 7.54675C6.72434 7.31825 6.90947 7.13341 7.13768 7.13341C7.36618 7.13341 7.55103 7.31825 7.55103 7.54675C7.55103 7.77525 7.36618 7.96009 7.13768 7.96009ZM7.13768 6.54288C6.90947 6.54288 6.72434 6.35803 6.72434 6.12953C6.72434 5.90131 6.90947 5.71619 7.13768 5.71619C7.36618 5.71619 7.55103 5.90131 7.55103 6.12953C7.55103 6.35803 7.36618 6.54288 7.13768 6.54288ZM8.83868 9.37759C8.61018 9.37759 8.42534 9.19275 8.42534 8.96425C8.42534 8.73575 8.61018 8.55091 8.83868 8.55091C9.06719 8.55091 9.25203 8.73575 9.25203 8.96425C9.25203 9.19275 9.06719 9.37759 8.83868 9.37759ZM8.83868 7.96009C8.61018 7.96009 8.42534 7.77525 8.42534 7.54675C8.42534 7.31825 8.61018 7.13341 8.83868 7.13341C9.06719 7.13341 9.25203 7.31825 9.25203 7.54675C9.25203 7.77525 9.06719 7.96009 8.83868 7.96009ZM8.83868 6.54288C8.61018 6.54288 8.42534 6.35803 8.42534 6.12953C8.42534 5.90131 8.61018 5.71619 8.83868 5.71619C9.06719 5.71619 9.25203 5.90131 9.25203 6.12953C9.25203 6.35803 9.06719 6.54288 8.83868 6.54288Z" fill="#B90D5D"/>
</svg>
