<svg width="16" height="12" viewBox="0 0 16 12" fill="none" xmlns="http://www.w3.org/2000/svg">
<path d="M14.5271 1.50714C13.7149 1.50714 13.0542 2.16829 13.0542 2.98093C13.0542 3.416 13.2437 3.80751 13.5443 4.07755L11.5743 5.39167L8.85612 2.6719C9.22916 2.40424 9.47291 1.96711 9.47291 1.47378C9.47291 0.661143 8.81213 0 7.99997 0C7.18781 0 6.52706 0.661143 6.52706 1.47378C6.52706 1.96711 6.77081 2.40424 7.14384 2.6719L4.42566 5.39167L2.45563 4.07755C2.75625 3.80754 2.94578 3.41603 2.94578 2.98093C2.94578 2.16829 2.28503 1.50714 1.47287 1.50714C0.660719 1.50714 0 2.16832 0 2.98096C0 3.64813 0.4455 4.21288 1.05441 4.3938L1.94169 11.0524H14.0583L14.9456 4.3938C15.5545 4.21288 16 3.64813 16 2.98096C16 2.16832 15.3392 1.50714 14.5271 1.50714ZM9.12775 9.04678L8.33147 9.84353C8.24359 9.93149 8.12434 9.98093 8.00003 9.98093C7.87572 9.98093 7.75647 9.93149 7.66856 9.84353L6.87228 9.04678C6.298 8.47213 6.298 7.5371 6.87228 6.96248L7.66869 6.16585C7.85172 5.98283 8.14838 5.9828 8.33141 6.16585L9.12778 6.96248C9.70394 7.53901 9.70288 8.47131 9.12775 9.04678Z" fill="white"/>
</svg>
